<svg width="1920" height="80" viewBox="0 0 1920 80" fill="none" xmlns="http://www.w3.org/2000/svg">
<rect width="1920" height="80" fill="white"/>
<rect y="79" width="1920" height="1" fill="#C0C2D7"/>
<path d="M1681.92 34.4V47H1679.62V36.38H1673.09V47H1670.78V34.4H1681.92ZM1689.51 47.126C1688.54 47.126 1687.66 46.916 1686.88 46.496C1686.1 46.076 1685.49 45.494 1685.04 44.75C1684.61 43.994 1684.4 43.142 1684.4 42.194C1684.4 41.246 1684.61 40.4 1685.04 39.656C1685.49 38.912 1686.1 38.33 1686.88 37.91C1687.66 37.49 1688.54 37.28 1689.51 37.28C1690.49 37.28 1691.37 37.49 1692.15 37.91C1692.93 38.33 1693.54 38.912 1693.97 39.656C1694.42 40.4 1694.64 41.246 1694.64 42.194C1694.64 43.142 1694.42 43.994 1693.97 44.75C1693.54 45.494 1692.93 46.076 1692.15 46.496C1691.37 46.916 1690.49 47.126 1689.51 47.126ZM1689.51 45.2C1690.34 45.2 1691.02 44.924 1691.56 44.372C1692.1 43.82 1692.37 43.094 1692.37 42.194C1692.37 41.294 1692.1 40.568 1691.56 40.016C1691.02 39.464 1690.34 39.188 1689.51 39.188C1688.68 39.188 1688 39.464 1687.46 40.016C1686.93 40.568 1686.66 41.294 1686.66 42.194C1686.66 43.094 1686.93 43.82 1687.46 44.372C1688 44.924 1688.68 45.2 1689.51 45.2ZM1696.86 37.388H1699.11V43.724L1704.42 37.388H1706.47V47H1704.22V40.664L1698.93 47H1696.86V37.388ZM1713.87 47.126C1712.88 47.126 1711.98 46.916 1711.19 46.496C1710.4 46.076 1709.78 45.494 1709.34 44.75C1708.89 43.994 1708.67 43.142 1708.67 42.194C1708.67 41.246 1708.89 40.4 1709.34 39.656C1709.78 38.912 1710.39 38.33 1711.17 37.91C1711.97 37.49 1712.87 37.28 1713.87 37.28C1714.82 37.28 1715.65 37.472 1716.36 37.856C1717.08 38.24 1717.62 38.792 1717.98 39.512L1716.25 40.52C1715.97 40.076 1715.63 39.746 1715.21 39.53C1714.8 39.302 1714.35 39.188 1713.86 39.188C1713.02 39.188 1712.32 39.464 1711.77 40.016C1711.22 40.556 1710.94 41.282 1710.94 42.194C1710.94 43.106 1711.21 43.838 1711.75 44.39C1712.3 44.93 1713 45.2 1713.86 45.2C1714.35 45.2 1714.8 45.092 1715.21 44.876C1715.63 44.648 1715.97 44.312 1716.25 43.868L1717.98 44.876C1717.61 45.596 1717.06 46.154 1716.34 46.55C1715.63 46.934 1714.81 47.126 1713.87 47.126ZM1723.96 43.148H1722.21V47H1719.96V37.388H1722.21V41.276H1724.01L1726.85 37.388H1729.27L1725.77 42.014L1729.5 47H1726.85L1723.96 43.148ZM1745.28 37.388V47H1743.04V39.296H1738.31V47H1736.06V37.388H1745.28ZM1752.6 47.126C1751.62 47.126 1750.75 46.916 1749.97 46.496C1749.19 46.076 1748.58 45.494 1748.13 44.75C1747.7 43.994 1747.48 43.142 1747.48 42.194C1747.48 41.246 1747.7 40.4 1748.13 39.656C1748.58 38.912 1749.19 38.33 1749.97 37.91C1750.75 37.49 1751.62 37.28 1752.6 37.28C1753.58 37.28 1754.46 37.49 1755.24 37.91C1756.02 38.33 1756.63 38.912 1757.06 39.656C1757.5 40.4 1757.73 41.246 1757.73 42.194C1757.73 43.142 1757.5 43.994 1757.06 44.75C1756.63 45.494 1756.02 46.076 1755.24 46.496C1754.46 46.916 1753.58 47.126 1752.6 47.126ZM1752.6 45.2C1753.42 45.2 1754.11 44.924 1754.65 44.372C1755.19 43.82 1755.46 43.094 1755.46 42.194C1755.46 41.294 1755.19 40.568 1754.65 40.016C1754.11 39.464 1753.42 39.188 1752.6 39.188C1751.77 39.188 1751.08 39.464 1750.54 40.016C1750.02 40.568 1749.75 41.294 1749.75 42.194C1749.75 43.094 1750.02 43.82 1750.54 44.372C1751.08 44.924 1751.77 45.2 1752.6 45.2ZM1764.92 37.388H1767.17V41.294H1772.02V37.388H1774.27V47H1772.02V43.202H1767.17V47H1764.92V37.388ZM1780.86 37.28C1782.28 37.28 1783.36 37.622 1784.1 38.306C1784.86 38.978 1785.24 39.998 1785.24 41.366V47H1783.11V45.83C1782.84 46.25 1782.44 46.574 1781.93 46.802C1781.42 47.018 1780.81 47.126 1780.09 47.126C1779.37 47.126 1778.74 47.006 1778.2 46.766C1777.66 46.514 1777.24 46.172 1776.94 45.74C1776.65 45.296 1776.51 44.798 1776.51 44.246C1776.51 43.382 1776.83 42.692 1777.46 42.176C1778.11 41.648 1779.12 41.384 1780.5 41.384H1782.99V41.24C1782.99 40.568 1782.78 40.052 1782.38 39.692C1781.98 39.332 1781.39 39.152 1780.59 39.152C1780.05 39.152 1779.52 39.236 1778.99 39.404C1778.48 39.572 1778.04 39.806 1777.68 40.106L1776.8 38.468C1777.3 38.084 1777.91 37.79 1778.61 37.586C1779.32 37.382 1780.07 37.28 1780.86 37.28ZM1780.56 45.488C1781.12 45.488 1781.62 45.362 1782.05 45.11C1782.5 44.846 1782.81 44.474 1782.99 43.994V42.878H1780.67C1779.37 42.878 1778.72 43.304 1778.72 44.156C1778.72 44.564 1778.88 44.888 1779.21 45.128C1779.53 45.368 1779.98 45.488 1780.56 45.488ZM1793.64 41.996C1794.24 42.164 1794.7 42.44 1795.03 42.824C1795.36 43.196 1795.53 43.646 1795.53 44.174C1795.53 44.762 1795.33 45.284 1794.94 45.74C1794.54 46.184 1793.99 46.532 1793.3 46.784C1792.6 47.036 1791.81 47.162 1790.92 47.162C1790.18 47.162 1789.45 47.078 1788.74 46.91C1788.04 46.73 1787.39 46.478 1786.82 46.154L1787.47 44.48C1787.93 44.744 1788.46 44.948 1789.05 45.092C1789.64 45.236 1790.23 45.308 1790.81 45.308C1791.57 45.308 1792.16 45.194 1792.58 44.966C1793.01 44.726 1793.23 44.402 1793.23 43.994C1793.23 43.622 1793.06 43.334 1792.72 43.13C1792.4 42.926 1791.94 42.824 1791.34 42.824H1789.46V41.312H1791.16C1791.72 41.312 1792.16 41.216 1792.47 41.024C1792.79 40.832 1792.96 40.562 1792.96 40.214C1792.96 39.866 1792.76 39.59 1792.38 39.386C1792 39.182 1791.47 39.08 1790.8 39.08C1789.84 39.08 1788.82 39.314 1787.75 39.782L1787.18 38.126C1788.44 37.538 1789.71 37.244 1790.99 37.244C1791.81 37.244 1792.54 37.358 1793.19 37.586C1793.84 37.802 1794.34 38.114 1794.7 38.522C1795.07 38.918 1795.26 39.374 1795.26 39.89C1795.26 40.358 1795.12 40.778 1794.83 41.15C1794.54 41.51 1794.14 41.792 1793.64 41.996ZM1804.83 41.996C1806.02 42.356 1806.61 43.124 1806.61 44.3C1806.61 45.164 1806.29 45.83 1805.64 46.298C1804.99 46.766 1804.03 47 1802.76 47H1797.87V37.388H1802.56C1803.74 37.388 1804.66 37.604 1805.32 38.036C1805.98 38.468 1806.31 39.08 1806.31 39.872C1806.31 40.364 1806.18 40.79 1805.91 41.15C1805.66 41.51 1805.3 41.792 1804.83 41.996ZM1800.01 41.402H1802.37C1803.53 41.402 1804.11 41 1804.11 40.196C1804.11 39.416 1803.53 39.026 1802.37 39.026H1800.01V41.402ZM1802.58 45.362C1803.82 45.362 1804.44 44.96 1804.44 44.156C1804.44 43.736 1804.29 43.424 1804 43.22C1803.72 43.004 1803.27 42.896 1802.65 42.896H1800.01V45.362H1802.58ZM1812.59 37.28C1814.01 37.28 1815.09 37.622 1815.83 38.306C1816.59 38.978 1816.97 39.998 1816.97 41.366V47H1814.84V45.83C1814.57 46.25 1814.17 46.574 1813.65 46.802C1813.15 47.018 1812.54 47.126 1811.82 47.126C1811.1 47.126 1810.47 47.006 1809.93 46.766C1809.39 46.514 1808.97 46.172 1808.67 45.74C1808.38 45.296 1808.24 44.798 1808.24 44.246C1808.24 43.382 1808.55 42.692 1809.19 42.176C1809.84 41.648 1810.85 41.384 1812.23 41.384H1814.72V41.24C1814.72 40.568 1814.51 40.052 1814.1 39.692C1813.71 39.332 1813.11 39.152 1812.32 39.152C1811.78 39.152 1811.25 39.236 1810.72 39.404C1810.2 39.572 1809.77 39.806 1809.41 40.106L1808.52 38.468C1809.03 38.084 1809.63 37.79 1810.34 37.586C1811.05 37.382 1811.8 37.28 1812.59 37.28ZM1812.29 45.488C1812.85 45.488 1813.35 45.362 1813.78 45.11C1814.22 44.846 1814.54 44.474 1814.72 43.994V42.878H1812.39C1811.1 42.878 1810.45 43.304 1810.45 44.156C1810.45 44.564 1810.61 44.888 1810.94 45.128C1811.26 45.368 1811.71 45.488 1812.29 45.488ZM1819.75 37.388H1822V41.294H1826.84V37.388H1829.09V47H1826.84V43.202H1822V47H1819.75V37.388ZM1832.11 37.388H1834.36V43.724L1839.67 37.388H1841.72V47H1839.47V40.664L1834.18 47H1832.11V37.388ZM1853.53 37.28C1854.49 37.28 1855.35 37.49 1856.1 37.91C1856.86 38.318 1857.45 38.9 1857.89 39.656C1858.32 40.4 1858.53 41.246 1858.53 42.194C1858.53 43.142 1858.32 43.994 1857.89 44.75C1857.45 45.494 1856.86 46.076 1856.1 46.496C1855.35 46.916 1854.49 47.126 1853.53 47.126C1852.69 47.126 1851.92 46.964 1851.23 46.64C1850.53 46.304 1849.95 45.836 1849.5 45.236C1849.04 44.624 1848.75 43.928 1848.62 43.148H1847V47H1844.75V37.388H1847V41.114H1848.65C1848.8 40.358 1849.1 39.692 1849.55 39.116C1850.01 38.528 1850.58 38.078 1851.26 37.766C1851.95 37.442 1852.7 37.28 1853.53 37.28ZM1853.53 45.218C1854.06 45.218 1854.53 45.098 1854.95 44.858C1855.37 44.606 1855.7 44.252 1855.94 43.796C1856.18 43.328 1856.3 42.794 1856.3 42.194C1856.3 41.282 1856.04 40.556 1855.51 40.016C1854.99 39.464 1854.33 39.188 1853.53 39.188C1852.73 39.188 1852.07 39.464 1851.55 40.016C1851.03 40.556 1850.78 41.282 1850.78 42.194C1850.78 43.106 1851.03 43.838 1851.55 44.39C1852.08 44.942 1852.74 45.218 1853.53 45.218Z" fill="#333333"/>
<g clip-path="url(#clip0_102_5380)">
<path d="M1655.03 44.617L1659.32 48.899L1657.9 50.314L1653.62 46.031C1652.03 47.3082 1650.04 48.0029 1648 48C1643.03 48 1639 43.968 1639 39C1639 34.032 1643.03 30 1648 30C1652.97 30 1657 34.032 1657 39C1657 41.042 1656.31 43.0237 1655.03 44.617ZM1653.03 43.875C1654.3 42.5698 1655 40.8204 1655 39C1655 35.132 1651.87 32 1648 32C1644.13 32 1641 35.132 1641 39C1641 42.867 1644.13 46 1648 46C1649.82 46.0028 1651.57 45.2941 1652.88 44.025L1653.03 43.875Z" fill="#333333"/>
</g>
<g clip-path="url(#clip1_102_5380)">
<path d="M1594 31.9064C1596.54 29.6216 1600.48 29.6975 1602.93 32.1534C1605.38 34.6104 1605.46 38.5234 1603.18 41.0757L1594 50.2754L1584.81 41.0757C1582.53 38.5234 1582.62 34.6039 1585.07 32.1534C1587.52 29.7007 1591.45 29.6184 1594 31.9064ZM1601.39 33.6841C1599.77 32.057 1597.15 31.9909 1595.45 33.5184L1594 34.8162L1592.55 33.5195C1590.85 31.9898 1588.23 32.057 1586.6 33.6863C1584.99 35.3005 1584.91 37.8842 1586.39 39.5916L1594 47.2085L1601.6 39.5926C1603.09 37.8842 1603.01 35.3037 1601.39 33.6841Z" fill="#F4683F"/>
</g>
<rect x="512" y="20" width="136" height="40" rx="20" fill="#F4683F"/>
<path d="M548.408 39.69H546.068V45H543.764V32.4H546.068V37.674H548.48L552.098 32.4H554.582L550.28 38.502L554.744 45H552.098L548.408 39.69ZM559.785 35.28C561.201 35.28 562.281 35.622 563.025 36.306C563.781 36.978 564.159 37.998 564.159 39.366V45H562.035V43.83C561.759 44.25 561.363 44.574 560.847 44.802C560.343 45.018 559.731 45.126 559.011 45.126C558.291 45.126 557.661 45.006 557.121 44.766C556.581 44.514 556.161 44.172 555.861 43.74C555.573 43.296 555.429 42.798 555.429 42.246C555.429 41.382 555.747 40.692 556.383 40.176C557.031 39.648 558.045 39.384 559.425 39.384H561.909V39.24C561.909 38.568 561.705 38.052 561.297 37.692C560.901 37.332 560.307 37.152 559.515 37.152C558.975 37.152 558.441 37.236 557.913 37.404C557.397 37.572 556.959 37.806 556.599 38.106L555.717 36.468C556.221 36.084 556.827 35.79 557.535 35.586C558.243 35.382 558.993 35.28 559.785 35.28ZM559.479 43.488C560.043 43.488 560.541 43.362 560.973 43.11C561.417 42.846 561.729 42.474 561.909 41.994V40.878H559.587C558.291 40.878 557.643 41.304 557.643 42.156C557.643 42.564 557.805 42.888 558.129 43.128C558.453 43.368 558.903 43.488 559.479 43.488ZM574.558 37.296H571.192V45H568.942V37.296H565.558V35.388H574.558V37.296ZM579.772 35.28C581.188 35.28 582.268 35.622 583.012 36.306C583.768 36.978 584.146 37.998 584.146 39.366V45H582.022V43.83C581.746 44.25 581.35 44.574 580.834 44.802C580.33 45.018 579.718 45.126 578.998 45.126C578.278 45.126 577.648 45.006 577.108 44.766C576.568 44.514 576.148 44.172 575.848 43.74C575.56 43.296 575.416 42.798 575.416 42.246C575.416 41.382 575.734 40.692 576.37 40.176C577.018 39.648 578.032 39.384 579.412 39.384H581.896V39.24C581.896 38.568 581.692 38.052 581.284 37.692C580.888 37.332 580.294 37.152 579.502 37.152C578.962 37.152 578.428 37.236 577.9 37.404C577.384 37.572 576.946 37.806 576.586 38.106L575.704 36.468C576.208 36.084 576.814 35.79 577.522 35.586C578.23 35.382 578.98 35.28 579.772 35.28ZM579.466 43.488C580.03 43.488 580.528 43.362 580.96 43.11C581.404 42.846 581.716 42.474 581.896 41.994V40.878H579.574C578.278 40.878 577.63 41.304 577.63 42.156C577.63 42.564 577.792 42.888 578.116 43.128C578.44 43.368 578.89 43.488 579.466 43.488ZM595.642 35.388V45H593.392V37.296H589.792L589.702 39.204C589.642 40.476 589.522 41.544 589.342 42.408C589.174 43.26 588.88 43.938 588.46 44.442C588.052 44.934 587.488 45.18 586.768 45.18C586.432 45.18 586.018 45.114 585.526 44.982L585.634 43.092C585.802 43.128 585.946 43.146 586.066 43.146C586.522 43.146 586.864 42.966 587.092 42.606C587.32 42.234 587.464 41.796 587.524 41.292C587.596 40.776 587.656 40.044 587.704 39.096L587.866 35.388H595.642ZM602.956 45.126C601.984 45.126 601.108 44.916 600.328 44.496C599.548 44.076 598.936 43.494 598.492 42.75C598.06 41.994 597.844 41.142 597.844 40.194C597.844 39.246 598.06 38.4 598.492 37.656C598.936 36.912 599.548 36.33 600.328 35.91C601.108 35.49 601.984 35.28 602.956 35.28C603.94 35.28 604.822 35.49 605.602 35.91C606.382 36.33 606.988 36.912 607.42 37.656C607.864 38.4 608.086 39.246 608.086 40.194C608.086 41.142 607.864 41.994 607.42 42.75C606.988 43.494 606.382 44.076 605.602 44.496C604.822 44.916 603.94 45.126 602.956 45.126ZM602.956 43.2C603.784 43.2 604.468 42.924 605.008 42.372C605.548 41.82 605.818 41.094 605.818 40.194C605.818 39.294 605.548 38.568 605.008 38.016C604.468 37.464 603.784 37.188 602.956 37.188C602.128 37.188 601.444 37.464 600.904 38.016C600.376 38.568 600.112 39.294 600.112 40.194C600.112 41.094 600.376 41.82 600.904 42.372C601.444 42.924 602.128 43.2 602.956 43.2ZM617.689 37.296H612.559V45H610.309V35.388H617.689V37.296Z" fill="white"/>
<path d="M691.985 33.4H701.795V35.326H694.289V38.422H698.015C699.527 38.422 700.673 38.74 701.453 39.376C702.245 40 702.641 40.906 702.641 42.094C702.641 43.342 702.209 44.308 701.345 44.992C700.481 45.664 699.251 46 697.655 46H691.985V33.4ZM697.529 44.2C698.429 44.2 699.113 44.026 699.581 43.678C700.049 43.33 700.283 42.826 700.283 42.166C700.283 40.87 699.365 40.222 697.529 40.222H694.289V44.2H697.529ZM709.631 39.556C710.855 39.556 711.791 39.832 712.439 40.384C713.087 40.936 713.411 41.716 713.411 42.724C713.411 43.78 713.051 44.596 712.331 45.172C711.623 45.748 710.615 46.03 709.307 46.018L704.951 46V36.388H707.201V39.538L709.631 39.556ZM714.653 36.388H716.903V46H714.653V36.388ZM709.109 44.362C709.769 44.374 710.273 44.236 710.621 43.948C710.969 43.66 711.143 43.24 711.143 42.688C711.143 42.148 710.975 41.752 710.639 41.5C710.303 41.248 709.793 41.116 709.109 41.104L707.201 41.086V44.344L709.109 44.362ZM724.302 46.126C723.306 46.126 722.412 45.916 721.62 45.496C720.828 45.076 720.21 44.494 719.766 43.75C719.322 42.994 719.1 42.142 719.1 41.194C719.1 40.246 719.322 39.4 719.766 38.656C720.21 37.912 720.822 37.33 721.602 36.91C722.394 36.49 723.294 36.28 724.302 36.28C725.25 36.28 726.078 36.472 726.786 36.856C727.506 37.24 728.046 37.792 728.406 38.512L726.678 39.52C726.402 39.076 726.054 38.746 725.634 38.53C725.226 38.302 724.776 38.188 724.284 38.188C723.444 38.188 722.748 38.464 722.196 39.016C721.644 39.556 721.368 40.282 721.368 41.194C721.368 42.106 721.638 42.838 722.178 43.39C722.73 43.93 723.432 44.2 724.284 44.2C724.776 44.2 725.226 44.092 725.634 43.876C726.054 43.648 726.402 43.312 726.678 42.868L728.406 43.876C728.034 44.596 727.488 45.154 726.768 45.55C726.06 45.934 725.238 46.126 724.302 46.126ZM737.913 38.296H734.547V46H732.297V38.296H728.913V36.388H737.913V38.296ZM744.873 36.28C745.809 36.28 746.643 36.484 747.375 36.892C748.119 37.3 748.701 37.876 749.121 38.62C749.541 39.364 749.751 40.222 749.751 41.194C749.751 42.166 749.541 43.03 749.121 43.786C748.701 44.53 748.119 45.106 747.375 45.514C746.643 45.922 745.809 46.126 744.873 46.126C743.577 46.126 742.551 45.694 741.795 44.83V49.492H739.545V36.388H741.687V37.648C742.059 37.192 742.515 36.85 743.055 36.622C743.607 36.394 744.213 36.28 744.873 36.28ZM744.621 44.2C745.449 44.2 746.127 43.924 746.655 43.372C747.195 42.82 747.465 42.094 747.465 41.194C747.465 40.294 747.195 39.568 746.655 39.016C746.127 38.464 745.449 38.188 744.621 38.188C744.081 38.188 743.595 38.314 743.163 38.566C742.731 38.806 742.389 39.154 742.137 39.61C741.885 40.066 741.759 40.594 741.759 41.194C741.759 41.794 741.885 42.322 742.137 42.778C742.389 43.234 742.731 43.588 743.163 43.84C743.595 44.08 744.081 44.2 744.621 44.2ZM756.671 39.556C757.895 39.556 758.831 39.832 759.479 40.384C760.127 40.936 760.451 41.716 760.451 42.724C760.451 43.78 760.091 44.596 759.371 45.172C758.663 45.748 757.655 46.03 756.347 46.018L751.991 46V36.388H754.241V39.538L756.671 39.556ZM761.693 36.388H763.943V46H761.693V36.388ZM756.149 44.362C756.809 44.374 757.313 44.236 757.661 43.948C758.009 43.66 758.183 43.24 758.183 42.688C758.183 42.148 758.015 41.752 757.679 41.5C757.343 41.248 756.833 41.116 756.149 41.104L754.241 41.086V44.344L756.149 44.362ZM775.967 41.248C775.967 41.404 775.955 41.626 775.931 41.914H768.389C768.521 42.622 768.863 43.186 769.415 43.606C769.979 44.014 770.675 44.218 771.503 44.218C772.559 44.218 773.429 43.87 774.113 43.174L775.319 44.56C774.887 45.076 774.341 45.466 773.681 45.73C773.021 45.994 772.277 46.126 771.449 46.126C770.393 46.126 769.463 45.916 768.659 45.496C767.855 45.076 767.231 44.494 766.787 43.75C766.355 42.994 766.139 42.142 766.139 41.194C766.139 40.258 766.349 39.418 766.769 38.674C767.201 37.918 767.795 37.33 768.551 36.91C769.307 36.49 770.159 36.28 771.107 36.28C772.043 36.28 772.877 36.49 773.609 36.91C774.353 37.318 774.929 37.9 775.337 38.656C775.757 39.4 775.967 40.264 775.967 41.248ZM771.107 38.08C770.387 38.08 769.775 38.296 769.271 38.728C768.779 39.148 768.479 39.712 768.371 40.42H773.825C773.729 39.724 773.435 39.16 772.943 38.728C772.451 38.296 771.839 38.08 771.107 38.08ZM792.619 36.388V46H790.387V38.296H785.653V46H783.403V36.388H792.619ZM799.939 46.126C798.967 46.126 798.091 45.916 797.311 45.496C796.531 45.076 795.919 44.494 795.475 43.75C795.043 42.994 794.827 42.142 794.827 41.194C794.827 40.246 795.043 39.4 795.475 38.656C795.919 37.912 796.531 37.33 797.311 36.91C798.091 36.49 798.967 36.28 799.939 36.28C800.923 36.28 801.805 36.49 802.585 36.91C803.365 37.33 803.971 37.912 804.403 38.656C804.847 39.4 805.069 40.246 805.069 41.194C805.069 42.142 804.847 42.994 804.403 43.75C803.971 44.494 803.365 45.076 802.585 45.496C801.805 45.916 800.923 46.126 799.939 46.126ZM799.939 44.2C800.767 44.2 801.451 43.924 801.991 43.372C802.531 42.82 802.801 42.094 802.801 41.194C802.801 40.294 802.531 39.568 801.991 39.016C801.451 38.464 800.767 38.188 799.939 38.188C799.111 38.188 798.427 38.464 797.887 39.016C797.359 39.568 797.095 40.294 797.095 41.194C797.095 42.094 797.359 42.82 797.887 43.372C798.427 43.924 799.111 44.2 799.939 44.2ZM817.446 44.092V48.142H815.34V46H807.924V48.142H805.836V44.092H806.286C806.898 44.068 807.312 43.678 807.528 42.922C807.756 42.154 807.906 41.074 807.978 39.682L808.104 36.388H816.024V44.092H817.446ZM810.03 39.844C809.982 40.948 809.892 41.848 809.76 42.544C809.628 43.24 809.388 43.756 809.04 44.092H813.774V38.296H810.084L810.03 39.844ZM824.657 36.856C825.569 36.856 826.373 37.054 827.069 37.45C827.765 37.834 828.305 38.374 828.689 39.07C829.085 39.766 829.283 40.564 829.283 41.464C829.283 42.388 829.067 43.21 828.635 43.93C828.203 44.638 827.597 45.19 826.817 45.586C826.037 45.982 825.149 46.18 824.153 46.18C822.485 46.18 821.195 45.628 820.283 44.524C819.371 43.42 818.915 41.83 818.915 39.754C818.915 37.822 819.329 36.292 820.157 35.164C820.985 34.036 822.251 33.292 823.955 32.932L828.419 31.978L828.743 33.994L824.693 34.822C823.529 35.062 822.659 35.47 822.083 36.046C821.507 36.622 821.171 37.432 821.075 38.476C821.507 37.96 822.029 37.564 822.641 37.288C823.253 37 823.925 36.856 824.657 36.856ZM824.207 44.362C825.035 44.362 825.701 44.098 826.205 43.57C826.721 43.03 826.979 42.346 826.979 41.518C826.979 40.69 826.721 40.024 826.205 39.52C825.701 39.016 825.035 38.764 824.207 38.764C823.367 38.764 822.689 39.016 822.173 39.52C821.657 40.024 821.399 40.69 821.399 41.518C821.399 42.358 821.657 43.042 822.173 43.57C822.701 44.098 823.379 44.362 824.207 44.362ZM835.745 46.126C834.773 46.126 833.897 45.916 833.117 45.496C832.337 45.076 831.725 44.494 831.281 43.75C830.849 42.994 830.633 42.142 830.633 41.194C830.633 40.246 830.849 39.4 831.281 38.656C831.725 37.912 832.337 37.33 833.117 36.91C833.897 36.49 834.773 36.28 835.745 36.28C836.729 36.28 837.611 36.49 838.391 36.91C839.171 37.33 839.777 37.912 840.209 38.656C840.653 39.4 840.875 40.246 840.875 41.194C840.875 42.142 840.653 42.994 840.209 43.75C839.777 44.494 839.171 45.076 838.391 45.496C837.611 45.916 836.729 46.126 835.745 46.126ZM835.745 44.2C836.573 44.2 837.257 43.924 837.797 43.372C838.337 42.82 838.607 42.094 838.607 41.194C838.607 40.294 838.337 39.568 837.797 39.016C837.257 38.464 836.573 38.188 835.745 38.188C834.917 38.188 834.233 38.464 833.693 39.016C833.165 39.568 832.901 40.294 832.901 41.194C832.901 42.094 833.165 42.82 833.693 43.372C834.233 43.924 834.917 44.2 835.745 44.2ZM848.426 36.28C849.362 36.28 850.196 36.484 850.928 36.892C851.672 37.3 852.254 37.876 852.674 38.62C853.094 39.364 853.304 40.222 853.304 41.194C853.304 42.166 853.094 43.03 852.674 43.786C852.254 44.53 851.672 45.106 850.928 45.514C850.196 45.922 849.362 46.126 848.426 46.126C847.13 46.126 846.104 45.694 845.348 44.83V49.492H843.098V36.388H845.24V37.648C845.612 37.192 846.068 36.85 846.608 36.622C847.16 36.394 847.766 36.28 848.426 36.28ZM848.174 44.2C849.002 44.2 849.68 43.924 850.208 43.372C850.748 42.82 851.018 42.094 851.018 41.194C851.018 40.294 850.748 39.568 850.208 39.016C849.68 38.464 849.002 38.188 848.174 38.188C847.634 38.188 847.148 38.314 846.716 38.566C846.284 38.806 845.942 39.154 845.69 39.61C845.438 40.066 845.312 40.594 845.312 41.194C845.312 41.794 845.438 42.322 845.69 42.778C845.942 43.234 846.284 43.588 846.716 43.84C847.148 44.08 847.634 44.2 848.174 44.2ZM859.539 42.148H857.793V46H855.543V36.388H857.793V40.276H859.593L862.437 36.388H864.849L861.357 41.014L865.083 46H862.437L859.539 42.148ZM866.67 36.388H868.92V42.724L874.23 36.388H876.282V46H874.032V39.664L868.74 46H866.67V36.388Z" fill="#333333"/>
<rect x="668.5" y="20.5" width="231" height="39" rx="19.5" stroke="#333333"/>
<path d="M100.713 39.5212V50.4985C100.713 55.1696 96.9354 58.9533 92.2718 58.9533H76.9753C75.0633 58.9533 73.5709 57.4118 73.5709 55.5433C73.5709 53.6282 75.1099 52.1334 76.9753 52.1334H90.453C92.3651 52.1334 93.8574 50.5919 93.8574 48.7234V39.3344C93.8574 38.26 93.3444 37.2323 92.505 36.5784L83.2711 29.6183C81.5456 28.3104 79.1206 28.3104 77.3951 29.6183L68.3011 36.485C67.3684 37.1856 66.8088 38.3067 66.8088 39.5212V55.59C66.8088 57.5052 65.2698 59 63.4044 59C61.4923 59 60 57.4585 60 55.59V39.8482C60 36.2981 61.6789 32.9816 64.477 30.8795L66.8554 29.1045L74.6902 23.2188L75.5296 22.6116C78.421 20.4628 82.3851 20.4628 85.2765 22.6116L86.1159 23.2188L93.9507 29.1512L96.5156 31.1131C99.1272 33.0283 100.713 36.2047 100.713 39.5212Z" fill="#F4683F"/>
<path d="M80.3793 49.5175C78.4672 49.5175 76.8816 47.9293 76.8816 46.0142V41.8101C76.8816 39.8949 78.4672 38.3067 80.3793 38.3067C82.2913 38.3067 83.8769 39.8949 83.8769 41.8101V46.0142C83.8769 47.9761 82.2913 49.5175 80.3793 49.5175Z" fill="#333333"/>
<path d="M289.493 51.6663C290.858 51.6663 291.965 50.5579 291.965 49.1906C291.965 47.8232 290.858 46.7148 289.493 46.7148C288.128 46.7148 287.021 47.8232 287.021 49.1906C287.021 50.5579 288.128 51.6663 289.493 51.6663Z" fill="#333333"/>
<path fill-rule="evenodd" clip-rule="evenodd" d="M248.034 43.9589V31.1132C248.034 29.5717 249.293 28.3105 250.832 28.3105C251.625 28.3105 252.325 28.6374 252.838 29.1513C253.351 29.6651 253.677 30.3658 253.677 31.1599V38.6338V42.0437V42.9779C253.817 46.2011 255.636 47.6024 257.828 47.6024C260.02 47.6024 261.792 46.2478 261.978 43.1181V41.9036V38.6338V31.1599C261.978 29.6184 263.237 28.3572 264.776 28.3572C265.569 28.3572 266.269 28.6841 266.782 29.198C267.295 29.7118 267.621 30.4125 267.621 31.2066V44.0523V44.426C267.621 48.2097 263.237 51.7597 257.828 51.7597C252.558 51.7597 248.221 48.3498 248.081 44.6596L248.034 43.9589ZM243.604 28.7776H228.214C227.188 28.7776 226.349 29.6184 226.349 30.646C226.349 31.6737 227.188 32.5145 228.214 32.5145H233.111V48.8169C233.111 50.3584 234.37 51.6196 235.909 51.6196C237.448 51.6196 238.707 50.3584 238.707 48.8169V32.5145H243.604C244.63 32.5145 245.469 31.6737 245.469 30.646C245.469 29.6184 244.63 28.7776 243.604 28.7776ZM286.975 28.7776H271.585C270.559 28.7776 269.72 29.6184 269.72 30.646C269.72 31.6737 270.559 32.5145 271.585 32.5145H276.482V48.8169C276.482 50.3584 277.741 51.6196 279.28 51.6196C280.819 51.6196 282.078 50.3584 282.078 48.8169V32.5145H286.975C288.001 32.5145 288.84 31.6737 288.84 30.646C288.84 29.6184 288.001 28.7776 286.975 28.7776ZM316.029 34.3363C316.029 36.9054 314.07 39.0542 311.412 39.7081C316.355 40.5489 316.075 44.9398 316.029 44.9398V48.8169C316.029 50.3584 314.77 51.6196 313.231 51.6196C311.692 51.6196 310.433 50.3584 310.433 48.8169V44.9398C310.433 44.9398 310.759 41.8101 306.608 41.8101H303.064V48.8169C303.064 50.3584 301.805 51.6196 300.266 51.6196C298.727 51.6196 297.468 50.3584 297.468 48.8169V31.5803C297.468 30.0388 298.727 28.7776 300.266 28.7776H309.826C310.339 28.7776 310.899 28.8243 311.412 28.9644C314.07 29.6184 316.029 31.7671 316.029 34.3363ZM303.064 38.587H305.862H307.494C309.22 38.587 310.712 37.3725 310.899 35.6442V35.3172C310.899 35.0837 310.899 34.8968 310.852 34.6633C310.526 33.0751 309.08 32.0007 307.494 32.0007H304.137H303.064V38.587ZM320.413 31.1132V43.9589L320.46 44.6596C320.6 48.3498 324.937 51.7597 330.207 51.7597C335.616 51.7597 340 48.2097 340 44.426V44.0523V31.2066C340 30.4125 339.674 29.7118 339.161 29.198C338.648 28.6841 337.948 28.3572 337.155 28.3572C335.616 28.3572 334.357 29.6184 334.357 31.1599V38.6338V41.9036V43.1181C334.171 46.2478 332.398 47.6024 330.207 47.6024C328.015 47.6024 326.196 46.2011 326.056 42.9779V42.0437V38.6338V31.1599C326.056 30.3658 325.73 29.6651 325.217 29.1513C324.704 28.6374 324.004 28.3105 323.211 28.3105C321.672 28.3105 320.413 29.5717 320.413 31.1132Z" fill="#F4683F"/>
<path fill-rule="evenodd" clip-rule="evenodd" d="M154.763 32.6079C153.457 30.7394 151.452 29.3381 149.12 28.7775C148.094 28.4506 146.649 28.2637 145.11 28.2637C143.571 28.2637 142.172 28.4506 141.099 28.7775C138.767 29.3381 136.809 30.7394 135.456 32.6079C134.337 34.1494 133.731 36.0646 133.731 38.1666V41.7634C133.731 43.8187 134.383 45.7339 135.456 47.3221C136.715 49.1438 138.581 50.4518 140.773 51.059C141.845 51.4327 143.384 51.713 145.11 51.713C146.835 51.713 148.374 51.4794 149.447 51.059C151.639 50.4518 153.504 49.0971 154.763 47.3221C155.882 45.7339 156.535 43.8654 156.535 41.7634V38.1666C156.535 36.0646 155.882 34.1494 154.763 32.6079ZM150.473 37.7462V42.0904C150.473 43.4917 149.96 44.7997 149.167 45.8273L148.887 46.1076C146.882 48.303 143.384 48.303 141.379 46.1076L141.099 45.8273C140.26 44.7997 139.793 43.4917 139.793 42.0904V37.7462C139.793 36.3448 140.306 35.0369 141.099 34.0092C141.099 34.0092 141.099 33.9625 141.146 33.9625C143.198 31.4401 147.068 31.4401 149.12 33.9625C149.12 33.9625 149.12 34.0092 149.167 34.0092C149.96 35.0369 150.473 36.3448 150.473 37.7462ZM109.993 31.3934V49.0037C109.993 50.4517 111.159 51.6195 112.605 51.6195H121.372C126.688 51.6195 131.026 47.322 131.026 41.9502V38.3534C131.026 33.0283 126.735 28.6841 121.372 28.6841H112.605C111.159 28.7775 109.993 29.9453 109.993 31.3934ZM118.947 48.3497H115.589V32.0473H118.947C122.258 32.0473 124.916 34.7099 124.916 38.0264V42.3706C124.916 45.6871 122.258 48.3497 118.947 48.3497ZM196.689 51.6196C195.15 51.6196 193.89 50.3584 193.89 48.8169V31.5803C193.89 30.0388 195.15 28.7776 196.689 28.7776C198.228 28.7776 199.487 30.0388 199.487 31.5803V48.8169C199.487 50.4051 198.228 51.6196 196.689 51.6196ZM216.136 39.8016L222.665 47.7892C223.458 48.8169 223.411 50.265 222.432 51.1058C221.452 51.9466 219.96 51.8065 219.121 50.7788L212.405 42.5575L210.82 40.6891V48.8169C210.82 50.3584 209.56 51.6196 208.021 51.6196C206.482 51.6196 205.223 50.3584 205.223 48.8169V31.5803C205.223 30.0388 206.482 28.7776 208.021 28.7776C209.56 28.7776 210.82 30.0388 210.82 31.5803V38.9607L211.985 37.5127L218.188 29.6651C218.981 28.6374 220.473 28.4973 221.499 29.2914C222.525 30.0855 222.665 31.5803 221.872 32.6079L216.136 39.8016ZM188.294 31.954V32.1408V32.4211V49.5176C188.294 50.6854 187.361 51.6196 186.196 51.6196C185.03 51.6196 184.097 50.6854 184.097 49.5176V35.2238V33.6823L183.584 34.9435L183.537 35.0369L177.661 48.4432C177.661 48.4899 177.615 48.5834 177.568 48.6301C177.102 49.7512 175.889 50.5452 174.537 50.4518C173.511 50.4051 172.578 49.8446 172.065 49.0505L172.065 49.0504C171.925 48.8636 171.785 48.6767 171.692 48.4432L165.816 35.0369L165.769 34.9435L165.256 33.6823V35.2238V49.5176C165.256 50.6854 164.323 51.6196 163.158 51.6196C161.992 51.6196 161.059 50.6854 161.059 49.5176V32.4211C161.059 32.3439 161.073 32.281 161.086 32.2243C161.096 32.1781 161.106 32.1361 161.106 32.0941C161.059 32.0474 161.059 32.0007 161.059 31.954C160.966 30.3191 162.598 28.9177 164.697 28.7776H164.743H165.116H165.303H165.443C166.189 28.8243 166.842 29.0578 167.401 29.3848C168.054 29.7585 168.474 30.2256 168.801 30.8329V30.8796C168.801 30.903 168.812 30.9263 168.824 30.9497C168.835 30.973 168.847 30.9964 168.847 31.0197L174.537 44.426L174.677 44.7063L174.816 44.426L180.506 31.0197C180.506 30.973 180.506 30.9263 180.553 30.8796V30.8329C180.879 30.2256 181.299 29.7118 181.952 29.3848C182.511 29.0578 183.164 28.8243 183.91 28.7776H184.05H184.237H184.61H184.657C186.755 28.9177 188.387 30.3191 188.294 31.954Z" fill="#333333"/>
<path d="M408.408 40.69H406.068V46H403.764V33.4H406.068V38.674H408.48L412.098 33.4H414.582L410.28 39.502L414.744 46H412.098L408.408 40.69ZM419.785 36.28C421.201 36.28 422.281 36.622 423.025 37.306C423.781 37.978 424.159 38.998 424.159 40.366V46H422.035V44.83C421.759 45.25 421.363 45.574 420.847 45.802C420.343 46.018 419.731 46.126 419.011 46.126C418.291 46.126 417.661 46.006 417.121 45.766C416.581 45.514 416.161 45.172 415.861 44.74C415.573 44.296 415.429 43.798 415.429 43.246C415.429 42.382 415.747 41.692 416.383 41.176C417.031 40.648 418.045 40.384 419.425 40.384H421.909V40.24C421.909 39.568 421.705 39.052 421.297 38.692C420.901 38.332 420.307 38.152 419.515 38.152C418.975 38.152 418.441 38.236 417.913 38.404C417.397 38.572 416.959 38.806 416.599 39.106L415.717 37.468C416.221 37.084 416.827 36.79 417.535 36.586C418.243 36.382 418.993 36.28 419.785 36.28ZM419.479 44.488C420.043 44.488 420.541 44.362 420.973 44.11C421.417 43.846 421.729 43.474 421.909 42.994V41.878H419.587C418.291 41.878 417.643 42.304 417.643 43.156C417.643 43.564 417.805 43.888 418.129 44.128C418.453 44.368 418.903 44.488 419.479 44.488ZM432.563 40.996C433.163 41.164 433.625 41.44 433.949 41.824C434.285 42.196 434.453 42.646 434.453 43.174C434.453 43.762 434.255 44.284 433.859 44.74C433.463 45.184 432.917 45.532 432.221 45.784C431.525 46.036 430.733 46.162 429.845 46.162C429.101 46.162 428.375 46.078 427.667 45.91C426.959 45.73 426.317 45.478 425.741 45.154L426.389 43.48C426.857 43.744 427.385 43.948 427.973 44.092C428.561 44.236 429.149 44.308 429.737 44.308C430.493 44.308 431.081 44.194 431.501 43.966C431.933 43.726 432.149 43.402 432.149 42.994C432.149 42.622 431.981 42.334 431.645 42.13C431.321 41.926 430.859 41.824 430.259 41.824H428.387V40.312H430.079C430.643 40.312 431.081 40.216 431.393 40.024C431.717 39.832 431.879 39.562 431.879 39.214C431.879 38.866 431.687 38.59 431.303 38.386C430.919 38.182 430.391 38.08 429.719 38.08C428.759 38.08 427.745 38.314 426.677 38.782L426.101 37.126C427.361 36.538 428.633 36.244 429.917 36.244C430.733 36.244 431.465 36.358 432.113 36.586C432.761 36.802 433.265 37.114 433.625 37.522C433.997 37.918 434.183 38.374 434.183 38.89C434.183 39.358 434.039 39.778 433.751 40.15C433.463 40.51 433.067 40.792 432.563 40.996ZM440.369 36.28C441.785 36.28 442.865 36.622 443.609 37.306C444.365 37.978 444.743 38.998 444.743 40.366V46H442.619V44.83C442.343 45.25 441.947 45.574 441.431 45.802C440.927 46.018 440.315 46.126 439.595 46.126C438.875 46.126 438.245 46.006 437.705 45.766C437.165 45.514 436.745 45.172 436.445 44.74C436.157 44.296 436.013 43.798 436.013 43.246C436.013 42.382 436.331 41.692 436.967 41.176C437.615 40.648 438.629 40.384 440.009 40.384H442.493V40.24C442.493 39.568 442.289 39.052 441.881 38.692C441.485 38.332 440.891 38.152 440.099 38.152C439.559 38.152 439.025 38.236 438.497 38.404C437.981 38.572 437.543 38.806 437.183 39.106L436.301 37.468C436.805 37.084 437.411 36.79 438.119 36.586C438.827 36.382 439.577 36.28 440.369 36.28ZM440.063 44.488C440.627 44.488 441.125 44.362 441.557 44.11C442.001 43.846 442.313 43.474 442.493 42.994V41.878H440.171C438.875 41.878 438.227 42.304 438.227 43.156C438.227 43.564 438.389 43.888 438.713 44.128C439.037 44.368 439.487 44.488 440.063 44.488ZM447.528 36.388H449.778V40.294H454.62V36.388H456.87V46H454.62V42.202H449.778V46H447.528V36.388ZM464.709 39.556C465.933 39.556 466.869 39.832 467.517 40.384C468.177 40.936 468.507 41.716 468.507 42.724C468.507 43.78 468.147 44.596 467.427 45.172C466.707 45.748 465.693 46.03 464.385 46.018L459.885 46V36.388H462.135V39.538L464.709 39.556ZM464.187 44.362C464.847 44.374 465.351 44.236 465.699 43.948C466.047 43.66 466.221 43.24 466.221 42.688C466.221 42.148 466.053 41.752 465.717 41.5C465.381 41.248 464.871 41.116 464.187 41.104L462.135 41.086V44.344L464.187 44.362Z" fill="#333333"/>
<path d="M389 30C385.58 30 382.808 32.7724 382.808 36.1923C382.808 38.7993 386.407 44.8066 388.117 47.514C388.309 47.8167 388.643 48 389.001 48C389.359 47.9992 389.692 47.8161 389.883 47.5134C391.593 44.8054 395.192 38.7993 395.192 36.1923C395.192 32.7724 392.42 30 389 30ZM389 39.9728C387.066 39.9728 385.498 38.405 385.498 36.4706C385.498 34.5365 387.066 32.9685 389 32.9685C390.934 32.9685 392.502 34.5364 392.502 36.4706C392.502 38.405 390.934 39.9728 389 39.9728Z" fill="#F4683F"/>
<g clip-path="url(#clip2_102_5380)">
<path d="M481.093 41.8842L485.218 37.7592L486.396 38.9375L481.093 44.2408L475.79 38.9375L476.968 37.7592L481.093 41.8842Z" fill="#333333"/>
</g>
<path d="M1111.59 34.4V47H1109.27V42.248C1108.08 42.692 1106.95 42.914 1105.89 42.914C1104.28 42.914 1103.04 42.53 1102.16 41.762C1101.3 40.982 1100.86 39.866 1100.86 38.414V34.4H1103.19V38.162C1103.19 39.05 1103.44 39.728 1103.96 40.196C1104.48 40.664 1105.21 40.898 1106.17 40.898C1107.27 40.898 1108.3 40.676 1109.27 40.232V34.4H1111.59ZM1118.45 37.28C1119.87 37.28 1120.95 37.622 1121.69 38.306C1122.45 38.978 1122.83 39.998 1122.83 41.366V47H1120.7V45.83C1120.43 46.25 1120.03 46.574 1119.52 46.802C1119.01 47.018 1118.4 47.126 1117.68 47.126C1116.96 47.126 1116.33 47.006 1115.79 46.766C1115.25 46.514 1114.83 46.172 1114.53 45.74C1114.24 45.296 1114.1 44.798 1114.1 44.246C1114.1 43.382 1114.42 42.692 1115.05 42.176C1115.7 41.648 1116.71 41.384 1118.09 41.384H1120.58V41.24C1120.58 40.568 1120.37 40.052 1119.97 39.692C1119.57 39.332 1118.98 39.152 1118.18 39.152C1117.64 39.152 1117.11 39.236 1116.58 39.404C1116.07 39.572 1115.63 39.806 1115.27 40.106L1114.39 38.468C1114.89 38.084 1115.5 37.79 1116.2 37.586C1116.91 37.382 1117.66 37.28 1118.45 37.28ZM1118.15 45.488C1118.71 45.488 1119.21 45.362 1119.64 45.11C1120.09 44.846 1120.4 44.474 1120.58 43.994V42.878H1118.26C1116.96 42.878 1116.31 43.304 1116.31 44.156C1116.31 44.564 1116.47 44.888 1116.8 45.128C1117.12 45.368 1117.57 45.488 1118.15 45.488ZM1129.99 47.126C1128.99 47.126 1128.1 46.916 1127.3 46.496C1126.51 46.076 1125.89 45.494 1125.45 44.75C1125.01 43.994 1124.78 43.142 1124.78 42.194C1124.78 41.246 1125.01 40.4 1125.45 39.656C1125.89 38.912 1126.51 38.33 1127.29 37.91C1128.08 37.49 1128.98 37.28 1129.99 37.28C1130.93 37.28 1131.76 37.472 1132.47 37.856C1133.19 38.24 1133.73 38.792 1134.09 39.512L1132.36 40.52C1132.09 40.076 1131.74 39.746 1131.32 39.53C1130.91 39.302 1130.46 39.188 1129.97 39.188C1129.13 39.188 1128.43 39.464 1127.88 40.016C1127.33 40.556 1127.05 41.282 1127.05 42.194C1127.05 43.106 1127.32 43.838 1127.86 44.39C1128.41 44.93 1129.12 45.2 1129.97 45.2C1130.46 45.2 1130.91 45.092 1131.32 44.876C1131.74 44.648 1132.09 44.312 1132.36 43.868L1134.09 44.876C1133.72 45.596 1133.17 46.154 1132.45 46.55C1131.74 46.934 1130.92 47.126 1129.99 47.126ZM1143.6 39.296H1140.23V47H1137.98V39.296H1134.6V37.388H1143.6V39.296ZM1149.91 40.556C1151.13 40.556 1152.07 40.832 1152.72 41.384C1153.36 41.936 1153.69 42.716 1153.69 43.724C1153.69 44.78 1153.33 45.596 1152.61 46.172C1151.9 46.748 1150.89 47.03 1149.58 47.018L1145.23 47V37.388H1147.48V40.538L1149.91 40.556ZM1154.93 37.388H1157.18V47H1154.93V37.388ZM1149.39 45.362C1150.05 45.374 1150.55 45.236 1150.9 44.948C1151.25 44.66 1151.42 44.24 1151.42 43.688C1151.42 43.148 1151.25 42.752 1150.92 42.5C1150.58 42.248 1150.07 42.116 1149.39 42.104L1147.48 42.086V45.344L1149.39 45.362ZM1169.21 42.248C1169.21 42.404 1169.19 42.626 1169.17 42.914H1161.63C1161.76 43.622 1162.1 44.186 1162.65 44.606C1163.22 45.014 1163.91 45.218 1164.74 45.218C1165.8 45.218 1166.67 44.87 1167.35 44.174L1168.56 45.56C1168.13 46.076 1167.58 46.466 1166.92 46.73C1166.26 46.994 1165.52 47.126 1164.69 47.126C1163.63 47.126 1162.7 46.916 1161.9 46.496C1161.09 46.076 1160.47 45.494 1160.03 44.75C1159.59 43.994 1159.38 43.142 1159.38 42.194C1159.38 41.258 1159.59 40.418 1160.01 39.674C1160.44 38.918 1161.03 38.33 1161.79 37.91C1162.55 37.49 1163.4 37.28 1164.35 37.28C1165.28 37.28 1166.12 37.49 1166.85 37.91C1167.59 38.318 1168.17 38.9 1168.58 39.656C1169 40.4 1169.21 41.264 1169.21 42.248ZM1164.35 39.08C1163.63 39.08 1163.01 39.296 1162.51 39.728C1162.02 40.148 1161.72 40.712 1161.61 41.42H1167.06C1166.97 40.724 1166.67 40.16 1166.18 39.728C1165.69 39.296 1165.08 39.08 1164.35 39.08ZM1183.61 41.996C1184.79 42.356 1185.39 43.124 1185.39 44.3C1185.39 45.164 1185.06 45.83 1184.42 46.298C1183.77 46.766 1182.81 47 1181.54 47H1176.64V37.388H1181.34C1182.51 37.388 1183.43 37.604 1184.09 38.036C1184.75 38.468 1185.08 39.08 1185.08 39.872C1185.08 40.364 1184.95 40.79 1184.69 41.15C1184.43 41.51 1184.07 41.792 1183.61 41.996ZM1178.78 41.402H1181.14C1182.3 41.402 1182.89 41 1182.89 40.196C1182.89 39.416 1182.3 39.026 1181.14 39.026H1178.78V41.402ZM1181.36 45.362C1182.59 45.362 1183.21 44.96 1183.21 44.156C1183.21 43.736 1183.07 43.424 1182.78 43.22C1182.49 43.004 1182.04 42.896 1181.43 42.896H1178.78V45.362H1181.36ZM1192.07 47.126C1191.1 47.126 1190.22 46.916 1189.44 46.496C1188.66 46.076 1188.05 45.494 1187.61 44.75C1187.17 43.994 1186.96 43.142 1186.96 42.194C1186.96 41.246 1187.17 40.4 1187.61 39.656C1188.05 38.912 1188.66 38.33 1189.44 37.91C1190.22 37.49 1191.1 37.28 1192.07 37.28C1193.05 37.28 1193.94 37.49 1194.72 37.91C1195.5 38.33 1196.1 38.912 1196.53 39.656C1196.98 40.4 1197.2 41.246 1197.2 42.194C1197.2 43.142 1196.98 43.994 1196.53 44.75C1196.1 45.494 1195.5 46.076 1194.72 46.496C1193.94 46.916 1193.05 47.126 1192.07 47.126ZM1192.07 45.2C1192.9 45.2 1193.58 44.924 1194.12 44.372C1194.66 43.82 1194.93 43.094 1194.93 42.194C1194.93 41.294 1194.66 40.568 1194.12 40.016C1193.58 39.464 1192.9 39.188 1192.07 39.188C1191.24 39.188 1190.56 39.464 1190.02 40.016C1189.49 40.568 1189.23 41.294 1189.23 42.194C1189.23 43.094 1189.49 43.82 1190.02 44.372C1190.56 44.924 1191.24 45.2 1192.07 45.2ZM1208.64 37.388V47H1206.41V39.296H1201.67V47H1199.42V37.388H1208.64ZM1217 37.28C1217.94 37.28 1218.77 37.484 1219.5 37.892C1220.25 38.3 1220.83 38.876 1221.25 39.62C1221.67 40.364 1221.88 41.222 1221.88 42.194C1221.88 43.166 1221.67 44.03 1221.25 44.786C1220.83 45.53 1220.25 46.106 1219.5 46.514C1218.77 46.922 1217.94 47.126 1217 47.126C1215.71 47.126 1214.68 46.694 1213.92 45.83V50.492H1211.67V37.388H1213.82V38.648C1214.19 38.192 1214.64 37.85 1215.18 37.622C1215.74 37.394 1216.34 37.28 1217 37.28ZM1216.75 45.2C1217.58 45.2 1218.26 44.924 1218.78 44.372C1219.32 43.82 1219.59 43.094 1219.59 42.194C1219.59 41.294 1219.32 40.568 1218.78 40.016C1218.26 39.464 1217.58 39.188 1216.75 39.188C1216.21 39.188 1215.72 39.314 1215.29 39.566C1214.86 39.806 1214.52 40.154 1214.27 40.61C1214.01 41.066 1213.89 41.594 1213.89 42.194C1213.89 42.794 1214.01 43.322 1214.27 43.778C1214.52 44.234 1214.86 44.588 1215.29 44.84C1215.72 45.08 1216.21 45.2 1216.75 45.2ZM1228.4 47.126C1227.43 47.126 1226.56 46.916 1225.78 46.496C1225 46.076 1224.38 45.494 1223.94 44.75C1223.51 43.994 1223.29 43.142 1223.29 42.194C1223.29 41.246 1223.51 40.4 1223.94 39.656C1224.38 38.912 1225 38.33 1225.78 37.91C1226.56 37.49 1227.43 37.28 1228.4 37.28C1229.39 37.28 1230.27 37.49 1231.05 37.91C1231.83 38.33 1232.44 38.912 1232.87 39.656C1233.31 40.4 1233.53 41.246 1233.53 42.194C1233.53 43.142 1233.31 43.994 1232.87 44.75C1232.44 45.494 1231.83 46.076 1231.05 46.496C1230.27 46.916 1229.39 47.126 1228.4 47.126ZM1228.4 45.2C1229.23 45.2 1229.92 44.924 1230.46 44.372C1231 43.82 1231.27 43.094 1231.27 42.194C1231.27 41.294 1231 40.568 1230.46 40.016C1229.92 39.464 1229.23 39.188 1228.4 39.188C1227.58 39.188 1226.89 39.464 1226.35 40.016C1225.82 40.568 1225.56 41.294 1225.56 42.194C1225.56 43.094 1225.82 43.82 1226.35 44.372C1226.89 44.924 1227.58 45.2 1228.4 45.2ZM1240.13 47.126C1239.13 47.126 1238.24 46.916 1237.45 46.496C1236.66 46.076 1236.04 45.494 1235.59 44.75C1235.15 43.994 1234.93 43.142 1234.93 42.194C1234.93 41.246 1235.15 40.4 1235.59 39.656C1236.04 38.912 1236.65 38.33 1237.43 37.91C1238.22 37.49 1239.12 37.28 1240.13 37.28C1241.08 37.28 1241.91 37.472 1242.61 37.856C1243.33 38.24 1243.87 38.792 1244.23 39.512L1242.51 40.52C1242.23 40.076 1241.88 39.746 1241.46 39.53C1241.05 39.302 1240.6 39.188 1240.11 39.188C1239.27 39.188 1238.58 39.464 1238.02 40.016C1237.47 40.556 1237.2 41.282 1237.2 42.194C1237.2 43.106 1237.47 43.838 1238.01 44.39C1238.56 44.93 1239.26 45.2 1240.11 45.2C1240.6 45.2 1241.05 45.092 1241.46 44.876C1241.88 44.648 1242.23 44.312 1242.51 43.868L1244.23 44.876C1243.86 45.596 1243.32 46.154 1242.6 46.55C1241.89 46.934 1241.07 47.126 1240.13 47.126ZM1250.9 40.556C1252.12 40.556 1253.06 40.832 1253.7 41.384C1254.35 41.936 1254.68 42.716 1254.68 43.724C1254.68 44.78 1254.32 45.596 1253.6 46.172C1252.89 46.748 1251.88 47.03 1250.57 47.018L1246.22 47V37.388H1248.47V40.538L1250.9 40.556ZM1255.92 37.388H1258.17V47H1255.92V37.388ZM1250.37 45.362C1251.03 45.374 1251.54 45.236 1251.89 44.948C1252.23 44.66 1252.41 44.24 1252.41 43.688C1252.41 43.148 1252.24 42.752 1251.9 42.5C1251.57 42.248 1251.06 42.116 1250.37 42.104L1248.47 42.086V45.344L1250.37 45.362Z" fill="#333333"/>
<path d="M1297.56 47.18C1296.29 47.18 1295.14 46.904 1294.1 46.352C1293.08 45.788 1292.28 45.014 1291.69 44.03C1291.12 43.046 1290.83 41.936 1290.83 40.7C1290.83 39.464 1291.12 38.354 1291.71 37.37C1292.3 36.386 1293.1 35.618 1294.12 35.066C1295.15 34.502 1296.31 34.22 1297.58 34.22C1298.61 34.22 1299.55 34.4 1300.4 34.76C1301.26 35.12 1301.98 35.642 1302.56 36.326L1301.05 37.748C1300.14 36.764 1299.02 36.272 1297.69 36.272C1296.82 36.272 1296.05 36.464 1295.36 36.848C1294.68 37.22 1294.15 37.742 1293.76 38.414C1293.38 39.086 1293.19 39.848 1293.19 40.7C1293.19 41.552 1293.38 42.314 1293.76 42.986C1294.15 43.658 1294.68 44.186 1295.36 44.57C1296.05 44.942 1296.82 45.128 1297.69 45.128C1299.02 45.128 1300.14 44.63 1301.05 43.634L1302.56 45.074C1301.98 45.758 1301.25 46.28 1300.39 46.64C1299.53 47 1298.59 47.18 1297.56 47.18ZM1308.42 47.126C1307.45 47.126 1306.57 46.916 1305.79 46.496C1305.01 46.076 1304.4 45.494 1303.95 44.75C1303.52 43.994 1303.31 43.142 1303.31 42.194C1303.31 41.246 1303.52 40.4 1303.95 39.656C1304.4 38.912 1305.01 38.33 1305.79 37.91C1306.57 37.49 1307.45 37.28 1308.42 37.28C1309.4 37.28 1310.28 37.49 1311.06 37.91C1311.84 38.33 1312.45 38.912 1312.88 39.656C1313.33 40.4 1313.55 41.246 1313.55 42.194C1313.55 43.142 1313.33 43.994 1312.88 44.75C1312.45 45.494 1311.84 46.076 1311.06 46.496C1310.28 46.916 1309.4 47.126 1308.42 47.126ZM1308.42 45.2C1309.25 45.2 1309.93 44.924 1310.47 44.372C1311.01 43.82 1311.28 43.094 1311.28 42.194C1311.28 41.294 1311.01 40.568 1310.47 40.016C1309.93 39.464 1309.25 39.188 1308.42 39.188C1307.59 39.188 1306.91 39.464 1306.37 40.016C1305.84 40.568 1305.57 41.294 1305.57 42.194C1305.57 43.094 1305.84 43.82 1306.37 44.372C1306.91 44.924 1307.59 45.2 1308.42 45.2ZM1323.03 39.296H1319.67V47H1317.42V39.296H1314.03V37.388H1323.03V39.296ZM1329.99 37.28C1330.93 37.28 1331.76 37.484 1332.49 37.892C1333.24 38.3 1333.82 38.876 1334.24 39.62C1334.66 40.364 1334.87 41.222 1334.87 42.194C1334.87 43.166 1334.66 44.03 1334.24 44.786C1333.82 45.53 1333.24 46.106 1332.49 46.514C1331.76 46.922 1330.93 47.126 1329.99 47.126C1328.7 47.126 1327.67 46.694 1326.91 45.83V50.492H1324.66V37.388H1326.81V38.648C1327.18 38.192 1327.63 37.85 1328.17 37.622C1328.73 37.394 1329.33 37.28 1329.99 37.28ZM1329.74 45.2C1330.57 45.2 1331.25 44.924 1331.77 44.372C1332.31 43.82 1332.58 43.094 1332.58 42.194C1332.58 41.294 1332.31 40.568 1331.77 40.016C1331.25 39.464 1330.57 39.188 1329.74 39.188C1329.2 39.188 1328.71 39.314 1328.28 39.566C1327.85 39.806 1327.51 40.154 1327.26 40.61C1327 41.066 1326.88 41.594 1326.88 42.194C1326.88 42.794 1327 43.322 1327.26 43.778C1327.51 44.234 1327.85 44.588 1328.28 44.84C1328.71 45.08 1329.2 45.2 1329.74 45.2ZM1345.92 37.388L1341.42 47.774C1341 48.818 1340.49 49.55 1339.89 49.97C1339.29 50.402 1338.56 50.618 1337.71 50.618C1337.23 50.618 1336.76 50.54 1336.29 50.384C1335.82 50.228 1335.44 50.012 1335.14 49.736L1336.04 48.08C1336.25 48.284 1336.5 48.446 1336.79 48.566C1337.09 48.686 1337.39 48.746 1337.69 48.746C1338.09 48.746 1338.41 48.644 1338.66 48.44C1338.93 48.236 1339.17 47.894 1339.38 47.414L1339.55 47.036L1335.35 37.388H1337.69L1340.72 44.498L1343.76 37.388H1345.92ZM1357.14 45.092V49.142H1355.04V47H1347.62V49.142H1345.53V45.092H1345.98C1346.6 45.068 1347.01 44.678 1347.23 43.922C1347.45 43.154 1347.6 42.074 1347.68 40.682L1347.8 37.388H1355.72V45.092H1357.14ZM1349.73 40.844C1349.68 41.948 1349.59 42.848 1349.46 43.544C1349.33 44.24 1349.09 44.756 1348.74 45.092H1353.47V39.296H1349.78L1349.73 40.844ZM1359.15 37.388H1361.4V41.294H1366.24V37.388H1368.49V47H1366.24V43.202H1361.4V47H1359.15V37.388ZM1371.51 37.388H1373.76V43.724L1379.07 37.388H1381.12V47H1378.87V40.664L1373.58 47H1371.51V37.388ZM1392.3 37.388V47H1390.05V43.274C1389.13 43.718 1388.16 43.94 1387.15 43.94C1385.92 43.94 1384.97 43.658 1384.31 43.094C1383.65 42.518 1383.32 41.642 1383.32 40.466V37.388H1385.57V40.322C1385.57 40.934 1385.75 41.39 1386.11 41.69C1386.47 41.99 1386.98 42.14 1387.64 42.14C1388.48 42.14 1389.28 41.96 1390.05 41.6V37.388H1392.3ZM1404.33 42.248C1404.33 42.404 1404.32 42.626 1404.29 42.914H1396.75C1396.88 43.622 1397.22 44.186 1397.78 44.606C1398.34 45.014 1399.04 45.218 1399.86 45.218C1400.92 45.218 1401.79 44.87 1402.47 44.174L1403.68 45.56C1403.25 46.076 1402.7 46.466 1402.04 46.73C1401.38 46.994 1400.64 47.126 1399.81 47.126C1398.75 47.126 1397.82 46.916 1397.02 46.496C1396.22 46.076 1395.59 45.494 1395.15 44.75C1394.72 43.994 1394.5 43.142 1394.5 42.194C1394.5 41.258 1394.71 40.418 1395.13 39.674C1395.56 38.918 1396.16 38.33 1396.91 37.91C1397.67 37.49 1398.52 37.28 1399.47 37.28C1400.4 37.28 1401.24 37.49 1401.97 37.91C1402.71 38.318 1403.29 38.9 1403.7 39.656C1404.12 40.4 1404.33 41.264 1404.33 42.248ZM1399.47 39.08C1398.75 39.08 1398.14 39.296 1397.63 39.728C1397.14 40.148 1396.84 40.712 1396.73 41.42H1402.19C1402.09 40.724 1401.8 40.16 1401.3 39.728C1400.81 39.296 1400.2 39.08 1399.47 39.08ZM1411.16 47.126C1410.17 47.126 1409.27 46.916 1408.48 46.496C1407.69 46.076 1407.07 45.494 1406.63 44.75C1406.18 43.994 1405.96 43.142 1405.96 42.194C1405.96 41.246 1406.18 40.4 1406.63 39.656C1407.07 38.912 1407.68 38.33 1408.46 37.91C1409.26 37.49 1410.16 37.28 1411.16 37.28C1412.11 37.28 1412.94 37.472 1413.65 37.856C1414.37 38.24 1414.91 38.792 1415.27 39.512L1413.54 40.52C1413.26 40.076 1412.92 39.746 1412.5 39.53C1412.09 39.302 1411.64 39.188 1411.15 39.188C1410.31 39.188 1409.61 39.464 1409.06 40.016C1408.51 40.556 1408.23 41.282 1408.23 42.194C1408.23 43.106 1408.5 43.838 1409.04 44.39C1409.59 44.93 1410.29 45.2 1411.15 45.2C1411.64 45.2 1412.09 45.092 1412.5 44.876C1412.92 44.648 1413.26 44.312 1413.54 43.868L1415.27 44.876C1414.9 45.596 1414.35 46.154 1413.63 46.55C1412.92 46.934 1412.1 47.126 1411.16 47.126ZM1424.77 39.296H1421.41V47H1419.16V39.296H1415.77V37.388H1424.77V39.296ZM1433.37 41.996C1434.56 42.356 1435.15 43.124 1435.15 44.3C1435.15 45.164 1434.83 45.83 1434.18 46.298C1433.53 46.766 1432.57 47 1431.3 47H1426.41V37.388H1431.1C1432.28 37.388 1433.2 37.604 1433.86 38.036C1434.52 38.468 1434.85 39.08 1434.85 39.872C1434.85 40.364 1434.72 40.79 1434.45 41.15C1434.2 41.51 1433.84 41.792 1433.37 41.996ZM1428.55 41.402H1430.91C1432.07 41.402 1432.65 41 1432.65 40.196C1432.65 39.416 1432.07 39.026 1430.91 39.026H1428.55V41.402ZM1431.12 45.362C1432.36 45.362 1432.98 44.96 1432.98 44.156C1432.98 43.736 1432.83 43.424 1432.54 43.22C1432.26 43.004 1431.81 42.896 1431.19 42.896H1428.55V45.362H1431.12ZM1441.84 47.126C1440.86 47.126 1439.99 46.916 1439.21 46.496C1438.43 46.076 1437.82 45.494 1437.37 44.75C1436.94 43.994 1436.72 43.142 1436.72 42.194C1436.72 41.246 1436.94 40.4 1437.37 39.656C1437.82 38.912 1438.43 38.33 1439.21 37.91C1439.99 37.49 1440.86 37.28 1441.84 37.28C1442.82 37.28 1443.7 37.49 1444.48 37.91C1445.26 38.33 1445.87 38.912 1446.3 39.656C1446.74 40.4 1446.97 41.246 1446.97 42.194C1446.97 43.142 1446.74 43.994 1446.3 44.75C1445.87 45.494 1445.26 46.076 1444.48 46.496C1443.7 46.916 1442.82 47.126 1441.84 47.126ZM1441.84 45.2C1442.66 45.2 1443.35 44.924 1443.89 44.372C1444.43 43.82 1444.7 43.094 1444.7 42.194C1444.7 41.294 1444.43 40.568 1443.89 40.016C1443.35 39.464 1442.66 39.188 1441.84 39.188C1441.01 39.188 1440.32 39.464 1439.78 40.016C1439.26 40.568 1438.99 41.294 1438.99 42.194C1438.99 43.094 1439.26 43.82 1439.78 44.372C1440.32 44.924 1441.01 45.2 1441.84 45.2Z" fill="#333333"/>
<defs>
<clipPath id="clip0_102_5380">
<rect width="24" height="24" fill="white" transform="translate(1637 28)"/>
</clipPath>
<clipPath id="clip1_102_5380">
<rect width="26" height="26" fill="white" transform="translate(1581 27)"/>
</clipPath>
<clipPath id="clip2_102_5380">
<rect width="20" height="20" fill="white" transform="translate(471 31)"/>
</clipPath>
</defs>
</svg>
